<svg width="32" height="32" viewBox="0 0 32 32" fill="none" xmlns="http://www.w3.org/2000/svg">
<path d="M15.4505 16.3749L20.0599 11.7655C20.3024 11.5216 20.4385 11.1915 20.4385 10.8476C20.4385 10.5036 20.3024 10.1735 20.0599 9.92959C19.9388 9.80755 19.7948 9.71068 19.6361 9.64457C19.4775 9.57847 19.3073 9.54443 19.1354 9.54443C18.9635 9.54443 18.7933 9.57847 18.6346 9.64457C18.476 9.71068 18.332 9.80755 18.2109 9.92959L12.6901 15.4504C12.568 15.5715 12.4712 15.7155 12.4051 15.8741C12.339 16.0328 12.3049 16.203 12.3049 16.3749C12.3049 16.5468 12.339 16.717 12.4051 16.8757C12.4712 17.0343 12.568 17.1783 12.6901 17.2994L18.2109 22.8853C18.3326 23.006 18.4769 23.1015 18.6355 23.1663C18.7942 23.2311 18.964 23.2639 19.1354 23.2629C19.3068 23.2639 19.4766 23.2311 19.6353 23.1663C19.7939 23.1015 19.9382 23.006 20.0599 22.8853C20.3024 22.6414 20.4385 22.3113 20.4385 21.9673C20.4385 21.6234 20.3024 21.2933 20.0599 21.0494L15.4505 16.3749Z" fill="#E22C38"/>
</svg>
