<svg width="66" height="80" viewBox="0 0 66 80" fill="none" xmlns="http://www.w3.org/2000/svg">
<g filter="url(#filter0_d_895_14255)">
<path d="M38.1334 56.3417C38.6796 55.7116 39.4125 55.2773 40.2123 55.0411C50.5033 52.0027 58 42.6301 58 31.5389C58 17.9864 46.8071 7 33 7C19.1929 7 8 17.9864 8 31.5389C8 42.6305 15.4972 52.0033 25.7888 55.0414C26.5886 55.2776 27.3215 55.7119 27.8678 56.342L32.6227 61.8267C32.8221 62.0567 33.1789 62.0567 33.3783 61.8267L38.1334 56.3417Z" fill="#E22C38"/>
</g>
<g filter="url(#filter1_d_895_14255)">
<circle cx="33" cy="67" r="4" fill="white"/>
</g>
<circle cx="33" cy="67" r="2" fill="#E22C38"/>
<g clip-path="url(#clip0_895_14255)">
<g clip-path="url(#clip1_895_14255)">
<path d="M42.55 24.7398H29.9601C28.7738 23.4252 26.7432 23.329 25.45 24.526C24.766 25.1245 24.3813 25.9795 24.3813 26.8773V36.496C24.0978 36.496 23.826 36.6086 23.6255 36.8091C23.4251 37.0095 23.3125 37.2813 23.3125 37.5648V38.6335H31.8625V37.5648C31.8625 37.2813 31.7499 37.0095 31.5495 36.8091C31.349 36.6086 31.0772 36.496 30.7937 36.496V29.0148H42.55C43.1169 29.0148 43.6606 28.7896 44.0614 28.3887C44.4623 27.9879 44.6875 27.4442 44.6875 26.8773C44.6875 26.3104 44.4623 25.7667 44.0614 25.3659C43.6606 24.965 43.1169 24.7398 42.55 24.7398ZM27.5875 28.4804C27.1623 28.4804 26.7546 28.3115 26.4539 28.0109C26.1533 27.7102 25.9844 27.3025 25.9844 26.8773C25.9844 26.4521 26.1533 26.0444 26.4539 25.7437C26.7546 25.4431 27.1623 25.2742 27.5875 25.2742C28.0127 25.2742 28.4204 25.4431 28.7211 25.7437C29.0217 26.0444 29.1906 26.4521 29.1906 26.8773C29.1906 27.3025 29.0217 27.7102 28.7211 28.0109C28.4204 28.3115 28.0127 28.4804 27.5875 28.4804ZM32.3969 27.946L30.7937 25.8085H32.3969L34 27.946H32.3969ZM36.6719 27.946L35.0687 25.8085H36.6719L38.275 27.946H36.6719ZM40.9469 27.946L39.3438 25.8085H40.9469L42.55 27.946H40.9469Z" fill="white"/>
</g>
</g>
<defs>
<filter id="filter0_d_895_14255" x="0" y="0" width="66" height="70.999" filterUnits="userSpaceOnUse" color-interpolation-filters="sRGB">
<feFlood flood-opacity="0" result="BackgroundImageFix"/>
<feColorMatrix in="SourceAlpha" type="matrix" values="0 0 0 0 0 0 0 0 0 0 0 0 0 0 0 0 0 0 127 0" result="hardAlpha"/>
<feOffset dy="1"/>
<feGaussianBlur stdDeviation="4"/>
<feColorMatrix type="matrix" values="0 0 0 0 0 0 0 0 0 0 0 0 0 0 0 0 0 0 0.1 0"/>
<feBlend mode="normal" in2="BackgroundImageFix" result="effect1_dropShadow_895_14255"/>
<feBlend mode="normal" in="SourceGraphic" in2="effect1_dropShadow_895_14255" result="shape"/>
</filter>
<filter id="filter1_d_895_14255" x="21" y="56" width="24" height="24" filterUnits="userSpaceOnUse" color-interpolation-filters="sRGB">
<feFlood flood-opacity="0" result="BackgroundImageFix"/>
<feColorMatrix in="SourceAlpha" type="matrix" values="0 0 0 0 0 0 0 0 0 0 0 0 0 0 0 0 0 0 127 0" result="hardAlpha"/>
<feOffset dy="1"/>
<feGaussianBlur stdDeviation="4"/>
<feColorMatrix type="matrix" values="0 0 0 0 0 0 0 0 0 0 0 0 0 0 0 0 0 0 0.08 0"/>
<feBlend mode="normal" in2="BackgroundImageFix" result="effect1_dropShadow_895_14255"/>
<feBlend mode="normal" in="SourceGraphic" in2="effect1_dropShadow_895_14255" result="shape"/>
</filter>
<clipPath id="clip0_895_14255">
<rect width="23.75" height="23.75" fill="white" transform="translate(22.125 20.125)"/>
</clipPath>
<clipPath id="clip1_895_14255">
<rect width="23.75" height="23.75" fill="white" transform="translate(22.125 20.125)"/>
</clipPath>
</defs>
</svg>
