<svg width="66" height="80" viewBox="0 0 66 80" fill="none" xmlns="http://www.w3.org/2000/svg">
<g filter="url(#filter0_d_895_14277)">
<path d="M38.1334 56.3417C38.6796 55.7116 39.4125 55.2773 40.2123 55.0411C50.5033 52.0027 58 42.6301 58 31.5389C58 17.9864 46.8071 7 33 7C19.1929 7 8 17.9864 8 31.5389C8 42.6305 15.4972 52.0033 25.7888 55.0414C26.5886 55.2776 27.3215 55.7119 27.8678 56.342L32.6227 61.8267C32.8221 62.0567 33.1789 62.0567 33.3783 61.8267L38.1334 56.3417Z" fill="#2CC1E2"/>
</g>
<g filter="url(#filter1_d_895_14277)">
<circle cx="33" cy="67" r="4" fill="white"/>
</g>
<circle cx="33" cy="67" r="2" fill="#2CC1E2"/>
<path d="M23.2841 26.0625C22.0858 26.0625 21.125 27.0313 21.125 28.2396V35.8594H23.2841C23.2841 36.7255 23.6253 37.5561 24.2327 38.1685C24.84 38.7809 25.6638 39.125 26.5227 39.125C27.3817 39.125 28.2054 38.7809 28.8128 38.1685C29.4202 37.5561 29.7614 36.7255 29.7614 35.8594H36.2386C36.2386 36.7255 36.5798 37.5561 37.1872 38.1685C37.7946 38.7809 38.6183 39.125 39.4773 39.125C40.3362 39.125 41.16 38.7809 41.7673 38.1685C42.3747 37.5561 42.7159 36.7255 42.7159 35.8594H44.875V28.2396C44.875 27.0313 43.9142 26.0625 42.7159 26.0625H23.2841ZM22.7443 27.6953H27.0625V30.4167H22.7443V27.6953ZM28.6818 27.6953H33V30.4167H28.6818V27.6953ZM34.6193 27.6953H38.9375V30.4167H34.6193V27.6953ZM40.5568 27.6953H43.2557V33.6823L40.5568 31.5052V27.6953ZM26.5227 34.2266C26.9522 34.2266 27.3641 34.3986 27.6678 34.7048C27.9714 35.011 28.142 35.4263 28.142 35.8594C28.142 36.2924 27.9714 36.7077 27.6678 37.0139C27.3641 37.3202 26.9522 37.4922 26.5227 37.4922C26.0933 37.4922 25.6814 37.3202 25.3777 37.0139C25.074 36.7077 24.9034 36.2924 24.9034 35.8594C24.9034 35.4263 25.074 35.011 25.3777 34.7048C25.6814 34.3986 26.0933 34.2266 26.5227 34.2266ZM39.4773 34.2266C39.9067 34.2266 40.3186 34.3986 40.6223 34.7048C40.926 35.011 41.0966 35.4263 41.0966 35.8594C41.0966 36.2924 40.926 36.7077 40.6223 37.0139C40.3186 37.3202 39.9067 37.4922 39.4773 37.4922C39.0478 37.4922 38.6359 37.3202 38.3322 37.0139C38.0286 36.7077 37.858 36.2924 37.858 35.8594C37.858 35.4263 38.0286 35.011 38.3322 34.7048C38.6359 34.3986 39.0478 34.2266 39.4773 34.2266Z" fill="white"/>
<defs>
<filter id="filter0_d_895_14277" x="0" y="0" width="66" height="70.999" filterUnits="userSpaceOnUse" color-interpolation-filters="sRGB">
<feFlood flood-opacity="0" result="BackgroundImageFix"/>
<feColorMatrix in="SourceAlpha" type="matrix" values="0 0 0 0 0 0 0 0 0 0 0 0 0 0 0 0 0 0 127 0" result="hardAlpha"/>
<feOffset dy="1"/>
<feGaussianBlur stdDeviation="4"/>
<feColorMatrix type="matrix" values="0 0 0 0 0 0 0 0 0 0 0 0 0 0 0 0 0 0 0.1 0"/>
<feBlend mode="normal" in2="BackgroundImageFix" result="effect1_dropShadow_895_14277"/>
<feBlend mode="normal" in="SourceGraphic" in2="effect1_dropShadow_895_14277" result="shape"/>
</filter>
<filter id="filter1_d_895_14277" x="21" y="56" width="24" height="24" filterUnits="userSpaceOnUse" color-interpolation-filters="sRGB">
<feFlood flood-opacity="0" result="BackgroundImageFix"/>
<feColorMatrix in="SourceAlpha" type="matrix" values="0 0 0 0 0 0 0 0 0 0 0 0 0 0 0 0 0 0 127 0" result="hardAlpha"/>
<feOffset dy="1"/>
<feGaussianBlur stdDeviation="4"/>
<feColorMatrix type="matrix" values="0 0 0 0 0 0 0 0 0 0 0 0 0 0 0 0 0 0 0.08 0"/>
<feBlend mode="normal" in2="BackgroundImageFix" result="effect1_dropShadow_895_14277"/>
<feBlend mode="normal" in="SourceGraphic" in2="effect1_dropShadow_895_14277" result="shape"/>
</filter>
</defs>
</svg>
