<svg width="66" height="80" viewBox="0 0 66 80" fill="none" xmlns="http://www.w3.org/2000/svg">
<g filter="url(#filter0_d_895_14378)">
<path d="M38.1334 56.3417C38.6796 55.7116 39.4125 55.2773 40.2123 55.0411C50.5033 52.0027 58 42.6301 58 31.5389C58 17.9864 46.8071 7 33 7C19.1929 7 8 17.9864 8 31.5389C8 42.6305 15.4972 52.0033 25.7888 55.0414C26.5886 55.2776 27.3215 55.7119 27.8678 56.342L32.6227 61.8267C32.8221 62.0567 33.1789 62.0567 33.3783 61.8267L38.1334 56.3417Z" fill="#E22C38"/>
</g>
<g filter="url(#filter1_d_895_14378)">
<circle cx="33" cy="67" r="4" fill="white"/>
</g>
<circle cx="33" cy="67" r="2" fill="#E22C38"/>
<g clip-path="url(#clip0_895_14378)">
<path d="M33.95 28.8828H32.05V27.1016H33.95V28.8828ZM33.95 32.8906H32.05V31.1094H33.95V32.8906ZM33.95 36.8984H32.05V35.1172H33.95V36.8984ZM42.5 30.2188V26.6562C42.5 25.6677 41.645 24.875 40.6 24.875H25.4C24.8961 24.875 24.4128 25.0627 24.0565 25.3967C23.7002 25.7308 23.5 26.1838 23.5 26.6562V30.2188C24.5545 30.2188 25.4 31.0203 25.4 32C25.4 32.4724 25.1998 32.9255 24.8435 33.2595C24.4872 33.5936 24.0039 33.7812 23.5 33.7812V37.3438C23.5 37.8162 23.7002 38.2692 24.0565 38.6033C24.4128 38.9373 24.8961 39.125 25.4 39.125H40.6C41.1039 39.125 41.5872 38.9373 41.9435 38.6033C42.2998 38.2692 42.5 37.8162 42.5 37.3438V33.7812C41.9961 33.7812 41.5128 33.5936 41.1565 33.2595C40.8002 32.9255 40.6 32.4724 40.6 32C40.6 31.5276 40.8002 31.0745 41.1565 30.7405C41.5128 30.4064 41.9961 30.2188 42.5 30.2188Z" fill="white"/>
</g>
<defs>
<filter id="filter0_d_895_14378" x="0" y="0" width="66" height="70.999" filterUnits="userSpaceOnUse" color-interpolation-filters="sRGB">
<feFlood flood-opacity="0" result="BackgroundImageFix"/>
<feColorMatrix in="SourceAlpha" type="matrix" values="0 0 0 0 0 0 0 0 0 0 0 0 0 0 0 0 0 0 127 0" result="hardAlpha"/>
<feOffset dy="1"/>
<feGaussianBlur stdDeviation="4"/>
<feColorMatrix type="matrix" values="0 0 0 0 0 0 0 0 0 0 0 0 0 0 0 0 0 0 0.1 0"/>
<feBlend mode="normal" in2="BackgroundImageFix" result="effect1_dropShadow_895_14378"/>
<feBlend mode="normal" in="SourceGraphic" in2="effect1_dropShadow_895_14378" result="shape"/>
</filter>
<filter id="filter1_d_895_14378" x="21" y="56" width="24" height="24" filterUnits="userSpaceOnUse" color-interpolation-filters="sRGB">
<feFlood flood-opacity="0" result="BackgroundImageFix"/>
<feColorMatrix in="SourceAlpha" type="matrix" values="0 0 0 0 0 0 0 0 0 0 0 0 0 0 0 0 0 0 127 0" result="hardAlpha"/>
<feOffset dy="1"/>
<feGaussianBlur stdDeviation="4"/>
<feColorMatrix type="matrix" values="0 0 0 0 0 0 0 0 0 0 0 0 0 0 0 0 0 0 0.08 0"/>
<feBlend mode="normal" in2="BackgroundImageFix" result="effect1_dropShadow_895_14378"/>
<feBlend mode="normal" in="SourceGraphic" in2="effect1_dropShadow_895_14378" result="shape"/>
</filter>
<clipPath id="clip0_895_14378">
<rect width="23.75" height="23.75" fill="white" transform="translate(21.125 20.125)"/>
</clipPath>
</defs>
</svg>
