<svg width="66" height="80" viewBox="0 0 66 80" fill="none" xmlns="http://www.w3.org/2000/svg">
<g filter="url(#filter0_d_883_14052)">
<path d="M38.1334 56.3417C38.6796 55.7116 39.4125 55.2773 40.2123 55.0411C50.5033 52.0027 58 42.6301 58 31.5389C58 17.9864 46.8071 7 33 7C19.1929 7 8 17.9864 8 31.5389C8 42.6305 15.4972 52.0033 25.7888 55.0414C26.5886 55.2776 27.3215 55.7119 27.8678 56.342L32.6227 61.8267C32.8221 62.0567 33.1789 62.0567 33.3783 61.8267L38.1334 56.3417Z" fill="#59B36A"/>
</g>
<g filter="url(#filter1_d_883_14052)">
<circle cx="33" cy="67" r="4" fill="white"/>
</g>
<circle cx="33" cy="67" r="2" fill="#59B36A"/>
<g clip-path="url(#clip0_883_14052)">
<path d="M29.55 31.9996C28.48 31.2896 27.3 30.7296 26.02 30.3896C27.3 30.7296 28.48 31.2896 29.55 31.9996ZM39.98 30.3896C38.69 30.7296 37.49 31.2996 36.41 32.0296C37.49 31.2996 38.69 30.7296 39.98 30.3896Z" fill="#607D8B"/>
<path d="M36.49 29.63C36.31 26.84 35.18 24.12 33.06 22C30.92 24.14 29.74 26.86 29.51 29.63C30.79 30.31 31.97 31.19 33 32.26C34.03 31.2 35.21 30.32 36.49 29.63ZM29.99 32.28C29.85 32.18 29.69 32.09 29.54 31.99C29.69 32.1 29.85 32.18 29.99 32.28ZM36.41 32.03C36.28 32.12 36.14 32.19 36.01 32.29C36.14 32.19 36.28 32.12 36.41 32.03ZM33 35.45C30.85 32.17 27.18 30 23 30C23 35.32 26.36 39.82 31.03 41.49C31.66 41.72 32.32 41.89 33 42C33.68 41.88 34.33 41.71 34.97 41.49C39.64 39.82 43 35.32 43 30C38.82 30 35.15 32.17 33 35.45Z" fill="white"/>
</g>
<defs>
<filter id="filter0_d_883_14052" x="0" y="0" width="66" height="70.999" filterUnits="userSpaceOnUse" color-interpolation-filters="sRGB">
<feFlood flood-opacity="0" result="BackgroundImageFix"/>
<feColorMatrix in="SourceAlpha" type="matrix" values="0 0 0 0 0 0 0 0 0 0 0 0 0 0 0 0 0 0 127 0" result="hardAlpha"/>
<feOffset dy="1"/>
<feGaussianBlur stdDeviation="4"/>
<feColorMatrix type="matrix" values="0 0 0 0 0 0 0 0 0 0 0 0 0 0 0 0 0 0 0.1 0"/>
<feBlend mode="normal" in2="BackgroundImageFix" result="effect1_dropShadow_883_14052"/>
<feBlend mode="normal" in="SourceGraphic" in2="effect1_dropShadow_883_14052" result="shape"/>
</filter>
<filter id="filter1_d_883_14052" x="21" y="56" width="24" height="24" filterUnits="userSpaceOnUse" color-interpolation-filters="sRGB">
<feFlood flood-opacity="0" result="BackgroundImageFix"/>
<feColorMatrix in="SourceAlpha" type="matrix" values="0 0 0 0 0 0 0 0 0 0 0 0 0 0 0 0 0 0 127 0" result="hardAlpha"/>
<feOffset dy="1"/>
<feGaussianBlur stdDeviation="4"/>
<feColorMatrix type="matrix" values="0 0 0 0 0 0 0 0 0 0 0 0 0 0 0 0 0 0 0.08 0"/>
<feBlend mode="normal" in2="BackgroundImageFix" result="effect1_dropShadow_883_14052"/>
<feBlend mode="normal" in="SourceGraphic" in2="effect1_dropShadow_883_14052" result="shape"/>
</filter>
<clipPath id="clip0_883_14052">
<rect width="24" height="24" fill="white" transform="translate(21 20)"/>
</clipPath>
</defs>
</svg>
