<svg width="66" height="80" viewBox="0 0 66 80" fill="none" xmlns="http://www.w3.org/2000/svg">
<g filter="url(#filter0_d_743_13932)">
<path d="M38.1334 56.3417C38.6796 55.7116 39.4125 55.2773 40.2123 55.0411C50.5033 52.0027 58 42.6301 58 31.5389C58 17.9864 46.8071 7 33 7C19.1929 7 8 17.9864 8 31.5389C8 42.6305 15.4972 52.0033 25.7888 55.0414C26.5886 55.2776 27.3215 55.7119 27.8678 56.342L32.6227 61.8267C32.8221 62.0567 33.1789 62.0567 33.3783 61.8267L38.1334 56.3417Z" fill="#E8773F"/>
</g>
<g filter="url(#filter1_d_743_13932)">
<circle cx="33" cy="67" r="4" fill="white"/>
</g>
<circle cx="33" cy="67" r="2" fill="#E8773F"/>
<rect width="24" height="24" transform="translate(21 20)" fill="#E8773F"/>
<path d="M43.8 40.6367H22.2V42.7967H43.8V40.6367Z" fill="white"/>
<path d="M41.0982 27.2043H38.3304V24.4365H24.36V35.6392L27.1277 38.407H35.4968L38.2646 35.6392H41.0323L43.8 32.8715V30.1038L41.0982 27.2043ZM38.3304 30.0379H41.0982V32.8056H38.3304V30.0379Z" fill="white"/>
<defs>
<filter id="filter0_d_743_13932" x="0" y="0" width="66" height="70.999" filterUnits="userSpaceOnUse" color-interpolation-filters="sRGB">
<feFlood flood-opacity="0" result="BackgroundImageFix"/>
<feColorMatrix in="SourceAlpha" type="matrix" values="0 0 0 0 0 0 0 0 0 0 0 0 0 0 0 0 0 0 127 0" result="hardAlpha"/>
<feOffset dy="1"/>
<feGaussianBlur stdDeviation="4"/>
<feColorMatrix type="matrix" values="0 0 0 0 0 0 0 0 0 0 0 0 0 0 0 0 0 0 0.1 0"/>
<feBlend mode="normal" in2="BackgroundImageFix" result="effect1_dropShadow_743_13932"/>
<feBlend mode="normal" in="SourceGraphic" in2="effect1_dropShadow_743_13932" result="shape"/>
</filter>
<filter id="filter1_d_743_13932" x="21" y="56" width="24" height="24" filterUnits="userSpaceOnUse" color-interpolation-filters="sRGB">
<feFlood flood-opacity="0" result="BackgroundImageFix"/>
<feColorMatrix in="SourceAlpha" type="matrix" values="0 0 0 0 0 0 0 0 0 0 0 0 0 0 0 0 0 0 127 0" result="hardAlpha"/>
<feOffset dy="1"/>
<feGaussianBlur stdDeviation="4"/>
<feColorMatrix type="matrix" values="0 0 0 0 0 0 0 0 0 0 0 0 0 0 0 0 0 0 0.08 0"/>
<feBlend mode="normal" in2="BackgroundImageFix" result="effect1_dropShadow_743_13932"/>
<feBlend mode="normal" in="SourceGraphic" in2="effect1_dropShadow_743_13932" result="shape"/>
</filter>
</defs>
</svg>
