<svg width="66" height="80" viewBox="0 0 66 80" fill="none" xmlns="http://www.w3.org/2000/svg">
<g filter="url(#filter0_d_895_14105)">
<path d="M38.1334 56.3417C38.6796 55.7116 39.4125 55.2773 40.2123 55.0411C50.5033 52.0027 58 42.6301 58 31.5389C58 17.9864 46.8071 7 33 7C19.1929 7 8 17.9864 8 31.5389C8 42.6305 15.4972 52.0033 25.7888 55.0414C26.5886 55.2776 27.3215 55.7119 27.8678 56.342L32.6227 61.8267C32.8221 62.0567 33.1789 62.0567 33.3783 61.8267L38.1334 56.3417Z" fill="#59B36A"/>
</g>
<g filter="url(#filter1_d_895_14105)">
<circle cx="33" cy="67" r="4" fill="white"/>
</g>
<circle cx="33" cy="67" r="2" fill="#59B36A"/>
<g clip-path="url(#clip0_895_14105)">
<path d="M38.4 34.6055C36.942 34.6055 36.024 35.1815 35.214 35.7027C34.512 36.1552 33.9396 36.5255 33 36.5255C32.028 36.5255 31.488 36.1827 30.786 35.7027C29.976 35.1815 29.0904 34.6055 27.6 34.6055C26.1096 34.6055 25.224 35.1815 24.414 35.7027C23.712 36.1552 23.1504 36.5255 22.2 36.5255V39.1998C23.658 39.1998 24.576 38.6238 25.386 38.1027C26.088 37.6501 26.6496 37.2798 27.6 37.2798C28.5504 37.2798 29.112 37.6227 29.814 38.1027C30.624 38.6238 31.5096 39.1998 33 39.1998C34.4904 39.1998 35.376 38.6238 36.186 38.1027C36.888 37.6501 37.4604 37.2798 38.4 37.2798C39.372 37.2798 39.912 37.6227 40.614 38.1027C41.424 38.6238 42.3204 39.1998 43.8 39.1998V36.5255C42.828 36.5255 42.288 36.1827 41.586 35.7027C40.776 35.1815 39.858 34.6055 38.4 34.6055ZM38.4 29.7027C36.942 29.7027 36.024 30.2924 35.214 30.7998C34.512 31.2387 33.9396 31.6227 33 31.6227C32.028 31.6227 31.488 31.2798 30.786 30.7998C29.976 30.2787 29.0904 29.7027 27.6 29.7027C26.1096 29.7027 25.224 30.2924 24.414 30.7998C23.712 31.2387 23.1504 31.6227 22.2 31.6227V34.2969C23.658 34.2969 24.576 33.7072 25.386 33.1998C26.088 32.7198 26.628 32.3769 27.6 32.3769C28.572 32.3769 29.112 32.7198 29.814 33.1998C30.624 33.7209 31.5096 34.2969 33 34.2969C34.4904 34.2969 35.376 33.7072 36.186 33.1998C36.888 32.7198 37.428 32.3769 38.4 32.3769C39.372 32.3769 39.912 32.7198 40.614 33.1998C41.424 33.7209 42.3204 34.2969 43.8 34.2969V31.6227C42.828 31.6227 42.288 31.2798 41.586 30.7998C40.776 30.2787 39.858 29.7027 38.4 29.7027ZM38.4 24.7998C36.942 24.7998 36.024 25.3895 35.214 25.8969C34.512 26.3769 33.972 26.7198 33 26.7198C32.028 26.7198 31.488 26.3769 30.786 25.8969C29.976 25.3758 29.0904 24.7998 27.6 24.7998C26.1096 24.7998 25.224 25.3895 24.414 25.8969C23.712 26.3769 23.172 26.7198 22.2 26.7198V29.3941C23.658 29.3941 24.576 28.8044 25.386 28.2969C26.088 27.8581 26.6604 27.4741 27.6 27.4741C28.5396 27.4741 29.112 27.8169 29.814 28.2969C30.624 28.8181 31.5096 29.3941 33 29.3941C34.4904 29.3941 35.376 28.8044 36.186 28.2969C36.888 27.8581 37.4604 27.4741 38.4 27.4741C39.372 27.4741 39.912 27.8169 40.614 28.2969C41.424 28.8181 42.3204 29.3941 43.8 29.3941V26.7198C42.828 26.7198 42.288 26.3769 41.586 25.8969C40.776 25.3758 39.858 24.7998 38.4 24.7998Z" fill="white"/>
</g>
<defs>
<filter id="filter0_d_895_14105" x="0" y="0" width="66" height="70.999" filterUnits="userSpaceOnUse" color-interpolation-filters="sRGB">
<feFlood flood-opacity="0" result="BackgroundImageFix"/>
<feColorMatrix in="SourceAlpha" type="matrix" values="0 0 0 0 0 0 0 0 0 0 0 0 0 0 0 0 0 0 127 0" result="hardAlpha"/>
<feOffset dy="1"/>
<feGaussianBlur stdDeviation="4"/>
<feColorMatrix type="matrix" values="0 0 0 0 0 0 0 0 0 0 0 0 0 0 0 0 0 0 0.1 0"/>
<feBlend mode="normal" in2="BackgroundImageFix" result="effect1_dropShadow_895_14105"/>
<feBlend mode="normal" in="SourceGraphic" in2="effect1_dropShadow_895_14105" result="shape"/>
</filter>
<filter id="filter1_d_895_14105" x="21" y="56" width="24" height="24" filterUnits="userSpaceOnUse" color-interpolation-filters="sRGB">
<feFlood flood-opacity="0" result="BackgroundImageFix"/>
<feColorMatrix in="SourceAlpha" type="matrix" values="0 0 0 0 0 0 0 0 0 0 0 0 0 0 0 0 0 0 127 0" result="hardAlpha"/>
<feOffset dy="1"/>
<feGaussianBlur stdDeviation="4"/>
<feColorMatrix type="matrix" values="0 0 0 0 0 0 0 0 0 0 0 0 0 0 0 0 0 0 0.08 0"/>
<feBlend mode="normal" in2="BackgroundImageFix" result="effect1_dropShadow_895_14105"/>
<feBlend mode="normal" in="SourceGraphic" in2="effect1_dropShadow_895_14105" result="shape"/>
</filter>
<clipPath id="clip0_895_14105">
<rect width="24" height="24" fill="white" transform="translate(21 20)"/>
</clipPath>
</defs>
</svg>
