<svg width="66" height="80" viewBox="0 0 66 80" fill="none" xmlns="http://www.w3.org/2000/svg">
<g filter="url(#filter0_d_895_14168)">
<path d="M38.1334 56.3417C38.6796 55.7116 39.4125 55.2773 40.2123 55.0411C50.5033 52.0027 58 42.6301 58 31.5389C58 17.9864 46.8071 7 33 7C19.1929 7 8 17.9864 8 31.5389C8 42.6305 15.4972 52.0033 25.7888 55.0414C26.5886 55.2776 27.3215 55.7119 27.8678 56.342L32.6227 61.8267C32.8221 62.0567 33.1789 62.0567 33.3783 61.8267L38.1334 56.3417Z" fill="#7849DC"/>
</g>
<g filter="url(#filter1_d_895_14168)">
<circle cx="33" cy="67" r="4" fill="white"/>
</g>
<circle cx="33" cy="67" r="2" fill="#7849DC"/>
<g clip-path="url(#clip0_895_14168)">
<path d="M32.9957 34.4906C33.5183 34.4906 34.0066 34.3772 34.4521 34.159L38.3399 42.3998H40.199L35.8143 32.9808C36.1998 32.4135 36.4225 31.7328 36.4225 30.9997C36.4225 30.0739 36.0615 29.1859 35.4189 28.5313C34.7762 27.8766 33.9046 27.5088 32.9957 27.5088C32.0869 27.5088 31.2152 27.8766 30.5726 28.5313C29.9299 29.1859 29.5689 30.0739 29.5689 30.9997C29.5689 31.7328 29.7916 32.4135 30.1772 32.9808L25.799 42.3998H27.658L31.5393 34.159C31.9848 34.3772 32.4731 34.4906 32.9957 34.4906Z" fill="white"/>
<rect x="31.2" y="20.7998" width="3.6" height="3.6" fill="#FFFEFE"/>
<rect x="23.4" y="25" width="3.6" height="3.6" fill="#FFFEFE"/>
<rect x="39" y="25" width="3.6" height="3.6" fill="#FFFEFE"/>
<rect x="23.4" y="33.4004" width="3.6" height="3.6" fill="#FFFEFE"/>
<rect x="39" y="33.4004" width="3.6" height="3.6" fill="#FFFEFE"/>
<rect x="31.2" y="37.5996" width="3.6" height="3.6" fill="#FFFEFE"/>
<path fill-rule="evenodd" clip-rule="evenodd" d="M33 23.2C28.6922 23.2 25.2 26.6922 25.2 31C25.2 35.3078 28.6922 38.8 33 38.8C37.3078 38.8 40.8 35.3078 40.8 31C40.8 26.6922 37.3078 23.2 33 23.2ZM24 31C24 26.0294 28.0294 22 33 22C37.9706 22 42 26.0294 42 31C42 35.9706 37.9706 40 33 40C28.0294 40 24 35.9706 24 31Z" fill="white"/>
</g>
<defs>
<filter id="filter0_d_895_14168" x="0" y="0" width="66" height="70.999" filterUnits="userSpaceOnUse" color-interpolation-filters="sRGB">
<feFlood flood-opacity="0" result="BackgroundImageFix"/>
<feColorMatrix in="SourceAlpha" type="matrix" values="0 0 0 0 0 0 0 0 0 0 0 0 0 0 0 0 0 0 127 0" result="hardAlpha"/>
<feOffset dy="1"/>
<feGaussianBlur stdDeviation="4"/>
<feColorMatrix type="matrix" values="0 0 0 0 0 0 0 0 0 0 0 0 0 0 0 0 0 0 0.1 0"/>
<feBlend mode="normal" in2="BackgroundImageFix" result="effect1_dropShadow_895_14168"/>
<feBlend mode="normal" in="SourceGraphic" in2="effect1_dropShadow_895_14168" result="shape"/>
</filter>
<filter id="filter1_d_895_14168" x="21" y="56" width="24" height="24" filterUnits="userSpaceOnUse" color-interpolation-filters="sRGB">
<feFlood flood-opacity="0" result="BackgroundImageFix"/>
<feColorMatrix in="SourceAlpha" type="matrix" values="0 0 0 0 0 0 0 0 0 0 0 0 0 0 0 0 0 0 127 0" result="hardAlpha"/>
<feOffset dy="1"/>
<feGaussianBlur stdDeviation="4"/>
<feColorMatrix type="matrix" values="0 0 0 0 0 0 0 0 0 0 0 0 0 0 0 0 0 0 0.08 0"/>
<feBlend mode="normal" in2="BackgroundImageFix" result="effect1_dropShadow_895_14168"/>
<feBlend mode="normal" in="SourceGraphic" in2="effect1_dropShadow_895_14168" result="shape"/>
</filter>
<clipPath id="clip0_895_14168">
<rect width="24" height="24" fill="white" transform="translate(21 19)"/>
</clipPath>
</defs>
</svg>
