<svg width="66" height="80" viewBox="0 0 66 80" fill="none" xmlns="http://www.w3.org/2000/svg">
<g filter="url(#filter0_d_895_14209)">
<path d="M38.1334 56.3417C38.6796 55.7116 39.4125 55.2773 40.2123 55.0411C50.5033 52.0027 58 42.6301 58 31.5389C58 17.9864 46.8071 7 33 7C19.1929 7 8 17.9864 8 31.5389C8 42.6305 15.4972 52.0033 25.7888 55.0414C26.5886 55.2776 27.3215 55.7119 27.8678 56.342L32.6227 61.8267C32.8221 62.0567 33.1789 62.0567 33.3783 61.8267L38.1334 56.3417Z" fill="#E22C38"/>
</g>
<g filter="url(#filter1_d_895_14209)">
<circle cx="33" cy="67" r="4" fill="white"/>
</g>
<circle cx="33" cy="67" r="2" fill="#E22C38"/>
<g clip-path="url(#clip0_895_14209)">
<path d="M21.125 22.6875H44.875V40.5H21.125V22.6875Z" fill="white"/>
<path d="M33.9746 34.7828H32.0645V36.0135H30.2625V34.7828H29.0432V33.2414H30.2625V32.7592H29.0432V31.2178H30.2625V26.7773H33.6623C34.319 26.7773 34.8956 26.9021 35.3922 27.1516C35.8887 27.4011 36.2731 27.7585 36.5454 28.2237C36.8217 28.6846 36.9599 29.2111 36.9599 29.8032C36.9599 30.7166 36.6656 31.4377 36.0769 31.9663C35.4923 32.4949 34.6774 32.7592 33.6322 32.7592H32.0645V33.2414H33.9746V34.7828ZM32.0645 31.2178H33.6202C34.6293 31.2178 35.1339 30.7505 35.1339 29.8159C35.1339 29.3718 35.0057 29.0145 34.7495 28.7438C34.4932 28.4689 34.1388 28.3294 33.6863 28.3252H32.0645V31.2178Z" fill="#E22C38"/>
</g>
<defs>
<filter id="filter0_d_895_14209" x="0" y="0" width="66" height="70.999" filterUnits="userSpaceOnUse" color-interpolation-filters="sRGB">
<feFlood flood-opacity="0" result="BackgroundImageFix"/>
<feColorMatrix in="SourceAlpha" type="matrix" values="0 0 0 0 0 0 0 0 0 0 0 0 0 0 0 0 0 0 127 0" result="hardAlpha"/>
<feOffset dy="1"/>
<feGaussianBlur stdDeviation="4"/>
<feColorMatrix type="matrix" values="0 0 0 0 0 0 0 0 0 0 0 0 0 0 0 0 0 0 0.1 0"/>
<feBlend mode="normal" in2="BackgroundImageFix" result="effect1_dropShadow_895_14209"/>
<feBlend mode="normal" in="SourceGraphic" in2="effect1_dropShadow_895_14209" result="shape"/>
</filter>
<filter id="filter1_d_895_14209" x="21" y="56" width="24" height="24" filterUnits="userSpaceOnUse" color-interpolation-filters="sRGB">
<feFlood flood-opacity="0" result="BackgroundImageFix"/>
<feColorMatrix in="SourceAlpha" type="matrix" values="0 0 0 0 0 0 0 0 0 0 0 0 0 0 0 0 0 0 127 0" result="hardAlpha"/>
<feOffset dy="1"/>
<feGaussianBlur stdDeviation="4"/>
<feColorMatrix type="matrix" values="0 0 0 0 0 0 0 0 0 0 0 0 0 0 0 0 0 0 0.08 0"/>
<feBlend mode="normal" in2="BackgroundImageFix" result="effect1_dropShadow_895_14209"/>
<feBlend mode="normal" in="SourceGraphic" in2="effect1_dropShadow_895_14209" result="shape"/>
</filter>
<clipPath id="clip0_895_14209">
<rect width="23.75" height="17.8125" fill="white" transform="translate(21.125 22.6875)"/>
</clipPath>
</defs>
</svg>
