<svg width="66" height="80" viewBox="0 0 66 80" fill="none" xmlns="http://www.w3.org/2000/svg">
<g filter="url(#filter0_d_895_14363)">
<path d="M38.1334 56.3417C38.6796 55.7116 39.4125 55.2773 40.2123 55.0411C50.5033 52.0027 58 42.6301 58 31.5389C58 17.9864 46.8071 7 33 7C19.1929 7 8 17.9864 8 31.5389C8 42.6305 15.4972 52.0033 25.7888 55.0414C26.5886 55.2776 27.3215 55.7119 27.8678 56.342L32.6227 61.8267C32.8221 62.0567 33.1789 62.0567 33.3783 61.8267L38.1334 56.3417Z" fill="#E22C38"/>
</g>
<g filter="url(#filter1_d_895_14363)">
<circle cx="33" cy="67" r="4" fill="white"/>
</g>
<circle cx="33" cy="67" r="2" fill="#E22C38"/>
<g clip-path="url(#clip0_895_14363)">
<path d="M33 21.5498C27.2316 21.5498 22.55 26.2314 22.55 31.9998C22.55 37.7682 27.2316 42.4498 33 42.4498C38.7684 42.4498 43.45 37.7682 43.45 31.9998C43.45 26.2314 38.7684 21.5498 33 21.5498ZM34.1884 37.2248H31.8134V29.7673H34.1884V37.2248ZM34.1884 27.6773H31.8134V25.4683H34.1884V27.6773Z" fill="white"/>
</g>
<defs>
<filter id="filter0_d_895_14363" x="0" y="0" width="66" height="70.999" filterUnits="userSpaceOnUse" color-interpolation-filters="sRGB">
<feFlood flood-opacity="0" result="BackgroundImageFix"/>
<feColorMatrix in="SourceAlpha" type="matrix" values="0 0 0 0 0 0 0 0 0 0 0 0 0 0 0 0 0 0 127 0" result="hardAlpha"/>
<feOffset dy="1"/>
<feGaussianBlur stdDeviation="4"/>
<feColorMatrix type="matrix" values="0 0 0 0 0 0 0 0 0 0 0 0 0 0 0 0 0 0 0.1 0"/>
<feBlend mode="normal" in2="BackgroundImageFix" result="effect1_dropShadow_895_14363"/>
<feBlend mode="normal" in="SourceGraphic" in2="effect1_dropShadow_895_14363" result="shape"/>
</filter>
<filter id="filter1_d_895_14363" x="21" y="56" width="24" height="24" filterUnits="userSpaceOnUse" color-interpolation-filters="sRGB">
<feFlood flood-opacity="0" result="BackgroundImageFix"/>
<feColorMatrix in="SourceAlpha" type="matrix" values="0 0 0 0 0 0 0 0 0 0 0 0 0 0 0 0 0 0 127 0" result="hardAlpha"/>
<feOffset dy="1"/>
<feGaussianBlur stdDeviation="4"/>
<feColorMatrix type="matrix" values="0 0 0 0 0 0 0 0 0 0 0 0 0 0 0 0 0 0 0.08 0"/>
<feBlend mode="normal" in2="BackgroundImageFix" result="effect1_dropShadow_895_14363"/>
<feBlend mode="normal" in="SourceGraphic" in2="effect1_dropShadow_895_14363" result="shape"/>
</filter>
<clipPath id="clip0_895_14363">
<rect width="26.125" height="26.125" fill="white" transform="translate(19.9375 18.9375)"/>
</clipPath>
</defs>
</svg>
