<svg width="66" height="80" viewBox="0 0 66 80" fill="none" xmlns="http://www.w3.org/2000/svg">
<g filter="url(#filter0_d_895_14318)">
<path d="M38.1334 56.3417C38.6796 55.7116 39.4125 55.2773 40.2123 55.0411C50.5033 52.0027 58 42.6301 58 31.5389C58 17.9864 46.8071 7 33 7C19.1929 7 8 17.9864 8 31.5389C8 42.6305 15.4972 52.0033 25.7888 55.0414C26.5886 55.2776 27.3215 55.7119 27.8678 56.342L32.6227 61.8267C32.8221 62.0567 33.1789 62.0567 33.3783 61.8267L38.1334 56.3417Z" fill="#7849DC"/>
</g>
<g filter="url(#filter1_d_895_14318)">
<circle cx="33" cy="67" r="4" fill="white"/>
</g>
<circle cx="33" cy="67" r="2" fill="#7849DC"/>
<g clip-path="url(#clip0_895_14318)">
<path d="M30.1308 25.7073C28.8757 26.2258 27.7605 27.0885 26.9449 28.1821C26.0647 29.3623 25.6674 31.1979 25.6674 32.6905C25.6674 34.578 26.9111 37.9422 29.7878 42.6896C29.9047 42.8824 30.1136 43.0001 30.339 43.0001H35.6623C35.8876 43.0001 36.0967 42.8823 36.2135 42.6896C38.1336 39.521 39.421 36.9695 40.0656 35.0609C40.584 32.5424 40.7107 30.404 39.0535 28.1822C38.2379 27.0886 37.1227 26.2258 35.8676 25.7074L37.0666 21.8352C37.1272 21.6396 37.0913 21.4269 36.9698 21.2621C36.8483 21.0973 36.6558 21 36.451 21H29.5474C29.3426 21 29.1501 21.0973 29.0286 21.2621C28.9071 21.4269 28.8711 21.6396 28.9317 21.8352L30.1308 25.7073Z" fill="white"/>
</g>
<defs>
<filter id="filter0_d_895_14318" x="0" y="0" width="66" height="70.999" filterUnits="userSpaceOnUse" color-interpolation-filters="sRGB">
<feFlood flood-opacity="0" result="BackgroundImageFix"/>
<feColorMatrix in="SourceAlpha" type="matrix" values="0 0 0 0 0 0 0 0 0 0 0 0 0 0 0 0 0 0 127 0" result="hardAlpha"/>
<feOffset dy="1"/>
<feGaussianBlur stdDeviation="4"/>
<feColorMatrix type="matrix" values="0 0 0 0 0 0 0 0 0 0 0 0 0 0 0 0 0 0 0.1 0"/>
<feBlend mode="normal" in2="BackgroundImageFix" result="effect1_dropShadow_895_14318"/>
<feBlend mode="normal" in="SourceGraphic" in2="effect1_dropShadow_895_14318" result="shape"/>
</filter>
<filter id="filter1_d_895_14318" x="21" y="56" width="24" height="24" filterUnits="userSpaceOnUse" color-interpolation-filters="sRGB">
<feFlood flood-opacity="0" result="BackgroundImageFix"/>
<feColorMatrix in="SourceAlpha" type="matrix" values="0 0 0 0 0 0 0 0 0 0 0 0 0 0 0 0 0 0 127 0" result="hardAlpha"/>
<feOffset dy="1"/>
<feGaussianBlur stdDeviation="4"/>
<feColorMatrix type="matrix" values="0 0 0 0 0 0 0 0 0 0 0 0 0 0 0 0 0 0 0.08 0"/>
<feBlend mode="normal" in2="BackgroundImageFix" result="effect1_dropShadow_895_14318"/>
<feBlend mode="normal" in="SourceGraphic" in2="effect1_dropShadow_895_14318" result="shape"/>
</filter>
<clipPath id="clip0_895_14318">
<rect width="22" height="22" fill="white" transform="matrix(-1 0 0 1 44 21)"/>
</clipPath>
</defs>
</svg>
