<svg width="66" height="80" viewBox="0 0 66 80" fill="none" xmlns="http://www.w3.org/2000/svg">
<g filter="url(#filter0_d_883_14073)">
<path d="M38.1334 56.3417C38.6796 55.7116 39.4125 55.2773 40.2123 55.0411C50.5033 52.0027 58 42.6301 58 31.5389C58 17.9864 46.8071 7 33 7C19.1929 7 8 17.9864 8 31.5389C8 42.6305 15.4972 52.0033 25.7888 55.0414C26.5886 55.2776 27.3215 55.7119 27.8678 56.342L32.6227 61.8267C32.8221 62.0567 33.1789 62.0567 33.3783 61.8267L38.1334 56.3417Z" fill="#2CC1E2"/>
</g>
<g filter="url(#filter1_d_883_14073)">
<circle cx="33" cy="67" r="4" fill="white"/>
</g>
<circle cx="33" cy="67" r="2" fill="#2CC1E2"/>
<g clip-path="url(#clip0_883_14073)">
<path d="M34.7153 23.6875H28.25V40.3125H31.9444V34.7708H34.7153C37.7724 34.7708 40.2569 32.2863 40.2569 29.2292C40.2569 26.172 37.7724 23.6875 34.7153 23.6875ZM34.9 31.0764H31.9444V27.3819H34.9C35.916 27.3819 36.7472 28.2132 36.7472 29.2292C36.7472 30.2451 35.916 31.0764 34.9 31.0764Z" fill="white"/>
</g>
<defs>
<filter id="filter0_d_883_14073" x="0" y="0" width="66" height="70.999" filterUnits="userSpaceOnUse" color-interpolation-filters="sRGB">
<feFlood flood-opacity="0" result="BackgroundImageFix"/>
<feColorMatrix in="SourceAlpha" type="matrix" values="0 0 0 0 0 0 0 0 0 0 0 0 0 0 0 0 0 0 127 0" result="hardAlpha"/>
<feOffset dy="1"/>
<feGaussianBlur stdDeviation="4"/>
<feColorMatrix type="matrix" values="0 0 0 0 0 0 0 0 0 0 0 0 0 0 0 0 0 0 0.1 0"/>
<feBlend mode="normal" in2="BackgroundImageFix" result="effect1_dropShadow_883_14073"/>
<feBlend mode="normal" in="SourceGraphic" in2="effect1_dropShadow_883_14073" result="shape"/>
</filter>
<filter id="filter1_d_883_14073" x="21" y="56" width="24" height="24" filterUnits="userSpaceOnUse" color-interpolation-filters="sRGB">
<feFlood flood-opacity="0" result="BackgroundImageFix"/>
<feColorMatrix in="SourceAlpha" type="matrix" values="0 0 0 0 0 0 0 0 0 0 0 0 0 0 0 0 0 0 127 0" result="hardAlpha"/>
<feOffset dy="1"/>
<feGaussianBlur stdDeviation="4"/>
<feColorMatrix type="matrix" values="0 0 0 0 0 0 0 0 0 0 0 0 0 0 0 0 0 0 0.08 0"/>
<feBlend mode="normal" in2="BackgroundImageFix" result="effect1_dropShadow_883_14073"/>
<feBlend mode="normal" in="SourceGraphic" in2="effect1_dropShadow_883_14073" result="shape"/>
</filter>
<clipPath id="clip0_883_14073">
<rect width="23.75" height="23.75" fill="white" transform="translate(21.125 20.125)"/>
</clipPath>
</defs>
</svg>
