<svg width="66" height="80" viewBox="0 0 66 80" fill="none" xmlns="http://www.w3.org/2000/svg">
<g filter="url(#filter0_d_895_14186)">
<path d="M38.1334 56.3417C38.6796 55.7116 39.4125 55.2773 40.2123 55.0411C50.5033 52.0027 58 42.6301 58 31.5389C58 17.9864 46.8071 7 33 7C19.1929 7 8 17.9864 8 31.5389C8 42.6305 15.4972 52.0033 25.7888 55.0414C26.5886 55.2776 27.3215 55.7119 27.8678 56.342L32.6227 61.8267C32.8221 62.0567 33.1789 62.0567 33.3783 61.8267L38.1334 56.3417Z" fill="#59B36A"/>
</g>
<g filter="url(#filter1_d_895_14186)">
<circle cx="33" cy="67" r="4" fill="white"/>
</g>
<circle cx="33" cy="67" r="2" fill="#59B36A"/>
<g clip-path="url(#clip0_895_14186)">
<path d="M26.6182 40.4004C25.8524 40.4004 25.1847 39.9741 24.8607 39.3583L22.2982 30.3962L22.2 29.9793C22.2 29.7281 22.3035 29.4871 22.4876 29.3094C22.6717 29.1318 22.9214 29.032 23.1818 29.032H27.6786L32.1949 22.8078C32.3716 22.5614 32.6662 22.4004 33 22.4004C33.3338 22.4004 33.6382 22.5614 33.8149 22.8172L38.3215 29.032H42.8182C43.0786 29.032 43.3283 29.1318 43.5124 29.3094C43.6966 29.4871 43.8 29.7281 43.8 29.9793L43.7607 30.2541L41.1393 39.3583C40.8153 39.9741 40.1476 40.4004 39.3818 40.4004H26.6182ZM33 24.9962L30.0546 29.032H35.9455L33 24.9962ZM33 32.8214C32.4792 32.8214 31.9798 33.0211 31.6115 33.3764C31.2433 33.7317 31.0364 34.2137 31.0364 34.7162C31.0364 35.2187 31.2433 35.7006 31.6115 36.056C31.9798 36.4113 32.4792 36.6109 33 36.6109C33.5208 36.6109 34.0203 36.4113 34.3885 36.056C34.7568 35.7006 34.9636 35.2187 34.9636 34.7162C34.9636 34.2137 34.7568 33.7317 34.3885 33.3764C34.0203 33.0211 33.5208 32.8214 33 32.8214Z" fill="white"/>
</g>
<defs>
<filter id="filter0_d_895_14186" x="0" y="0" width="66" height="70.999" filterUnits="userSpaceOnUse" color-interpolation-filters="sRGB">
<feFlood flood-opacity="0" result="BackgroundImageFix"/>
<feColorMatrix in="SourceAlpha" type="matrix" values="0 0 0 0 0 0 0 0 0 0 0 0 0 0 0 0 0 0 127 0" result="hardAlpha"/>
<feOffset dy="1"/>
<feGaussianBlur stdDeviation="4"/>
<feColorMatrix type="matrix" values="0 0 0 0 0 0 0 0 0 0 0 0 0 0 0 0 0 0 0.1 0"/>
<feBlend mode="normal" in2="BackgroundImageFix" result="effect1_dropShadow_895_14186"/>
<feBlend mode="normal" in="SourceGraphic" in2="effect1_dropShadow_895_14186" result="shape"/>
</filter>
<filter id="filter1_d_895_14186" x="21" y="56" width="24" height="24" filterUnits="userSpaceOnUse" color-interpolation-filters="sRGB">
<feFlood flood-opacity="0" result="BackgroundImageFix"/>
<feColorMatrix in="SourceAlpha" type="matrix" values="0 0 0 0 0 0 0 0 0 0 0 0 0 0 0 0 0 0 127 0" result="hardAlpha"/>
<feOffset dy="1"/>
<feGaussianBlur stdDeviation="4"/>
<feColorMatrix type="matrix" values="0 0 0 0 0 0 0 0 0 0 0 0 0 0 0 0 0 0 0.08 0"/>
<feBlend mode="normal" in2="BackgroundImageFix" result="effect1_dropShadow_895_14186"/>
<feBlend mode="normal" in="SourceGraphic" in2="effect1_dropShadow_895_14186" result="shape"/>
</filter>
<clipPath id="clip0_895_14186">
<rect width="24" height="24" fill="white" transform="translate(21 20)"/>
</clipPath>
</defs>
</svg>
