<svg width="66" height="80" viewBox="0 0 66 80" fill="none" xmlns="http://www.w3.org/2000/svg">
<g filter="url(#filter0_d_743_13985)">
<path d="M38.1334 56.3417C38.6796 55.7116 39.4125 55.2773 40.2123 55.0411C50.5033 52.0027 58 42.6301 58 31.5389C58 17.9864 46.8071 7 33 7C19.1929 7 8 17.9864 8 31.5389C8 42.6305 15.4972 52.0033 25.7888 55.0414C26.5886 55.2776 27.3215 55.7119 27.8678 56.342L32.6227 61.8267C32.8221 62.0567 33.1789 62.0567 33.3783 61.8267L38.1334 56.3417Z" fill="#E8773F"/>
</g>
<g filter="url(#filter1_d_743_13985)">
<circle cx="33" cy="67" r="4" fill="white"/>
</g>
<circle cx="33" cy="67" r="2" fill="#E8773F"/>
<g clip-path="url(#clip0_743_13985)">
<rect width="24" height="24" transform="translate(21 20)" fill="#E8773F"/>
<path d="M41.4013 29.968C41.4013 24.9231 39.7832 22.4482 37.8319 22.4482C35.8329 22.4482 34.2148 24.9707 34.2148 29.968C34.2148 31.6337 35.357 33.0139 36.7848 33.5374L36.642 45.9593C37.4511 45.7213 38.2602 45.4357 38.9741 45.1026L38.8313 33.5374C40.2115 33.0139 41.4013 31.5861 41.4013 29.968Z" fill="white"/>
<path d="M31.7865 29.9677C31.7865 29.9677 31.7865 29.0158 31.7865 28.7303C31.7389 27.1597 31.2154 22.448 31.2154 22.448H30.5015L30.1684 29.5394H28.9309L28.5502 22.448H27.8363L27.4556 29.4918H26.2182L25.885 22.4004H25.1711C25.1711 22.4004 24.6476 27.1121 24.6 28.6827C24.6 29.0158 24.6 29.9201 24.6 29.9201C24.6 31.5859 25.7422 32.9661 27.17 33.4896L27.0272 45.3879C27.7887 45.6734 28.5502 45.9114 29.4069 46.1018L29.2641 33.5372C30.6443 33.0137 31.7865 31.5859 31.7865 29.9677Z" fill="white"/>
</g>
<defs>
<filter id="filter0_d_743_13985" x="0" y="0" width="66" height="70.999" filterUnits="userSpaceOnUse" color-interpolation-filters="sRGB">
<feFlood flood-opacity="0" result="BackgroundImageFix"/>
<feColorMatrix in="SourceAlpha" type="matrix" values="0 0 0 0 0 0 0 0 0 0 0 0 0 0 0 0 0 0 127 0" result="hardAlpha"/>
<feOffset dy="1"/>
<feGaussianBlur stdDeviation="4"/>
<feColorMatrix type="matrix" values="0 0 0 0 0 0 0 0 0 0 0 0 0 0 0 0 0 0 0.1 0"/>
<feBlend mode="normal" in2="BackgroundImageFix" result="effect1_dropShadow_743_13985"/>
<feBlend mode="normal" in="SourceGraphic" in2="effect1_dropShadow_743_13985" result="shape"/>
</filter>
<filter id="filter1_d_743_13985" x="21" y="56" width="24" height="24" filterUnits="userSpaceOnUse" color-interpolation-filters="sRGB">
<feFlood flood-opacity="0" result="BackgroundImageFix"/>
<feColorMatrix in="SourceAlpha" type="matrix" values="0 0 0 0 0 0 0 0 0 0 0 0 0 0 0 0 0 0 127 0" result="hardAlpha"/>
<feOffset dy="1"/>
<feGaussianBlur stdDeviation="4"/>
<feColorMatrix type="matrix" values="0 0 0 0 0 0 0 0 0 0 0 0 0 0 0 0 0 0 0.08 0"/>
<feBlend mode="normal" in2="BackgroundImageFix" result="effect1_dropShadow_743_13985"/>
<feBlend mode="normal" in="SourceGraphic" in2="effect1_dropShadow_743_13985" result="shape"/>
</filter>
<clipPath id="clip0_743_13985">
<rect width="24" height="24" fill="white" transform="translate(21 20)"/>
</clipPath>
</defs>
</svg>
