<svg width="66" height="80" viewBox="0 0 66 80" fill="none" xmlns="http://www.w3.org/2000/svg">
<g filter="url(#filter0_d_895_14090)">
<path d="M38.1334 56.3417C38.6796 55.7116 39.4125 55.2773 40.2123 55.0411C50.5033 52.0027 58 42.6301 58 31.5389C58 17.9864 46.8071 7 33 7C19.1929 7 8 17.9864 8 31.5389C8 42.6305 15.4972 52.0033 25.7888 55.0414C26.5886 55.2776 27.3215 55.7119 27.8678 56.342L32.6227 61.8267C32.8221 62.0567 33.1789 62.0567 33.3783 61.8267L38.1334 56.3417Z" fill="#336AF7"/>
</g>
<g filter="url(#filter1_d_895_14090)">
<circle cx="33" cy="67" r="4" fill="white"/>
</g>
<circle cx="33" cy="67" r="2" fill="#336AF7"/>
<path d="M41.2912 33.8671L42.9 32.2584L41.2912 30.6496L37.275 34.6659L30.3337 27.7246L34.35 23.7084L32.7412 22.0996L31.1325 23.7084L29.5237 22.0996L27.1162 24.5071L25.5075 22.8984L23.8987 24.5071L25.5075 26.1159L23.1 28.5234L24.7087 30.1321L23.1 31.7409L24.7087 33.3496L28.725 29.3334L35.6662 36.2746L31.65 40.2909L33.2587 41.8996L34.8675 40.2909L36.4762 41.8996L38.8837 39.4921L40.4925 41.1009L42.1012 39.4921L40.4925 37.8834L42.9 35.4759L41.2912 33.8671Z" fill="white"/>
<defs>
<filter id="filter0_d_895_14090" x="0" y="0" width="66" height="70.999" filterUnits="userSpaceOnUse" color-interpolation-filters="sRGB">
<feFlood flood-opacity="0" result="BackgroundImageFix"/>
<feColorMatrix in="SourceAlpha" type="matrix" values="0 0 0 0 0 0 0 0 0 0 0 0 0 0 0 0 0 0 127 0" result="hardAlpha"/>
<feOffset dy="1"/>
<feGaussianBlur stdDeviation="4"/>
<feColorMatrix type="matrix" values="0 0 0 0 0 0 0 0 0 0 0 0 0 0 0 0 0 0 0.1 0"/>
<feBlend mode="normal" in2="BackgroundImageFix" result="effect1_dropShadow_895_14090"/>
<feBlend mode="normal" in="SourceGraphic" in2="effect1_dropShadow_895_14090" result="shape"/>
</filter>
<filter id="filter1_d_895_14090" x="21" y="56" width="24" height="24" filterUnits="userSpaceOnUse" color-interpolation-filters="sRGB">
<feFlood flood-opacity="0" result="BackgroundImageFix"/>
<feColorMatrix in="SourceAlpha" type="matrix" values="0 0 0 0 0 0 0 0 0 0 0 0 0 0 0 0 0 0 127 0" result="hardAlpha"/>
<feOffset dy="1"/>
<feGaussianBlur stdDeviation="4"/>
<feColorMatrix type="matrix" values="0 0 0 0 0 0 0 0 0 0 0 0 0 0 0 0 0 0 0.08 0"/>
<feBlend mode="normal" in2="BackgroundImageFix" result="effect1_dropShadow_895_14090"/>
<feBlend mode="normal" in="SourceGraphic" in2="effect1_dropShadow_895_14090" result="shape"/>
</filter>
</defs>
</svg>
