<svg width="66" height="80" viewBox="0 0 66 80" fill="none" xmlns="http://www.w3.org/2000/svg">
<g filter="url(#filter0_d_895_14293)">
<path d="M38.1334 56.3417C38.6796 55.7116 39.4125 55.2773 40.2123 55.0411C50.5033 52.0027 58 42.6301 58 31.5389C58 17.9864 46.8071 7 33 7C19.1929 7 8 17.9864 8 31.5389C8 42.6305 15.4972 52.0033 25.7888 55.0414C26.5886 55.2776 27.3215 55.7119 27.8678 56.342L32.6227 61.8267C32.8221 62.0567 33.1789 62.0567 33.3783 61.8267L38.1334 56.3417Z" fill="#2CC1E2"/>
</g>
<g filter="url(#filter1_d_895_14293)">
<circle cx="33" cy="67" r="4" fill="white"/>
</g>
<circle cx="33" cy="67" r="2" fill="#2CC1E2"/>
<path d="M27.0461 31.9218C25.7152 31.9218 24.3842 31.9218 23 31.9218C23 30.6619 23 29.3664 23 28.0177C24.3132 28.0177 25.5909 28.0177 27.0461 28.0177C27.0461 29.3131 27.0461 30.6264 27.0461 31.9218Z" fill="white"/>
<path d="M31.0214 31.9752C31.0214 33.2884 31.0214 34.6194 31.0214 35.9858C29.6904 35.9858 28.3772 35.9858 27.064 35.9858C27.064 34.6371 27.064 33.2884 27.064 31.9397C28.3772 31.9574 29.7081 31.9752 31.0214 31.9752Z" fill="white"/>
<path d="M35.1371 31.9396C33.7529 31.9573 32.3865 31.9573 31.0023 31.9751L31.02 31.9928C31.02 30.6796 31.02 29.3664 31.02 28.0177C32.3687 28.0177 33.6465 28.0177 35.0307 28.0177C35.0307 29.0292 35.0307 30.023 35.0307 30.999C35.0484 31.3185 35.1016 31.6379 35.1371 31.9396Z" fill="white"/>
<path d="M38.9355 31.9574C38.971 31.1766 39.0065 30.4135 39.0242 29.6327C39.042 29.1003 39.0242 28.5679 39.0242 28C40.3907 28 41.6684 28 42.9994 28C42.9994 29.331 42.9994 30.6264 42.9994 31.9397C41.6329 31.9397 40.2842 31.9397 38.9355 31.9574Z" fill="white"/>
<path d="M35.1397 31.9397C36.4174 31.9397 37.6774 31.9397 38.9551 31.9574L38.9374 31.9397C38.9729 32.5608 39.0261 33.1819 39.0439 33.8031C39.0616 34.5129 39.0439 35.2405 39.0439 35.9858C37.7129 35.9858 36.4174 35.9858 35.1397 35.9858C35.1397 34.6371 35.1397 33.2884 35.1397 31.9397Z" fill="white"/>
<defs>
<filter id="filter0_d_895_14293" x="0" y="0" width="66" height="70.999" filterUnits="userSpaceOnUse" color-interpolation-filters="sRGB">
<feFlood flood-opacity="0" result="BackgroundImageFix"/>
<feColorMatrix in="SourceAlpha" type="matrix" values="0 0 0 0 0 0 0 0 0 0 0 0 0 0 0 0 0 0 127 0" result="hardAlpha"/>
<feOffset dy="1"/>
<feGaussianBlur stdDeviation="4"/>
<feColorMatrix type="matrix" values="0 0 0 0 0 0 0 0 0 0 0 0 0 0 0 0 0 0 0.1 0"/>
<feBlend mode="normal" in2="BackgroundImageFix" result="effect1_dropShadow_895_14293"/>
<feBlend mode="normal" in="SourceGraphic" in2="effect1_dropShadow_895_14293" result="shape"/>
</filter>
<filter id="filter1_d_895_14293" x="21" y="56" width="24" height="24" filterUnits="userSpaceOnUse" color-interpolation-filters="sRGB">
<feFlood flood-opacity="0" result="BackgroundImageFix"/>
<feColorMatrix in="SourceAlpha" type="matrix" values="0 0 0 0 0 0 0 0 0 0 0 0 0 0 0 0 0 0 127 0" result="hardAlpha"/>
<feOffset dy="1"/>
<feGaussianBlur stdDeviation="4"/>
<feColorMatrix type="matrix" values="0 0 0 0 0 0 0 0 0 0 0 0 0 0 0 0 0 0 0.08 0"/>
<feBlend mode="normal" in2="BackgroundImageFix" result="effect1_dropShadow_895_14293"/>
<feBlend mode="normal" in="SourceGraphic" in2="effect1_dropShadow_895_14293" result="shape"/>
</filter>
</defs>
</svg>
