<svg width="66" height="80" viewBox="0 0 66 80" fill="none" xmlns="http://www.w3.org/2000/svg">
<g filter="url(#filter0_d_895_14308)">
<g filter="url(#filter1_d_895_14308)">
<path d="M38.1334 56.3417C38.6796 55.7116 39.4125 55.2773 40.2123 55.0411C50.5033 52.0027 58 42.6301 58 31.5389C58 17.9864 46.8071 7 33 7C19.1929 7 8 17.9864 8 31.5389C8 42.6305 15.4972 52.0033 25.7888 55.0414C26.5886 55.2776 27.3215 55.7119 27.8678 56.342L32.6227 61.8267C32.8221 62.0567 33.1789 62.0567 33.3783 61.8267L38.1334 56.3417Z" fill="#E22C38"/>
</g>
<g filter="url(#filter2_d_895_14308)">
<circle cx="33" cy="67" r="4" fill="white"/>
</g>
<circle cx="33" cy="67" r="2" fill="#E22C38"/>
<path d="M23.4857 34.9105L21.9017 26.7265H18.8877L21.6597 38.5625H24.7837L26.9617 29.5865L29.1177 38.5625H32.2417L35.0357 26.7265H32.0217L30.4377 34.8885L28.5677 26.7265H25.3337L23.4857 34.9105ZM41.6854 26.4625C38.1434 26.4625 35.7454 29.0585 35.7454 32.6665C35.7454 36.2525 38.0114 38.8485 41.5534 38.8485C44.0174 38.8485 46.4594 37.7705 47.1634 34.5365H44.2594C43.8414 35.9445 42.7634 36.4945 41.7074 36.4945C40.0354 36.4945 38.8474 35.1085 38.8474 32.6225C38.8474 30.1585 40.1014 28.8165 41.6854 28.8165C42.8514 28.8165 43.9074 29.6305 44.1494 30.7745H47.0534C46.6354 27.8485 44.1714 26.4625 41.6854 26.4625Z" fill="white"/>
</g>
<defs>
<filter id="filter0_d_895_14308" x="4" y="3" width="58" height="76" filterUnits="userSpaceOnUse" color-interpolation-filters="sRGB">
<feFlood flood-opacity="0" result="BackgroundImageFix"/>
<feColorMatrix in="SourceAlpha" type="matrix" values="0 0 0 0 0 0 0 0 0 0 0 0 0 0 0 0 0 0 127 0" result="hardAlpha"/>
<feOffset dy="4"/>
<feGaussianBlur stdDeviation="2"/>
<feComposite in2="hardAlpha" operator="out"/>
<feColorMatrix type="matrix" values="0 0 0 0 0 0 0 0 0 0 0 0 0 0 0 0 0 0 0.25 0"/>
<feBlend mode="normal" in2="BackgroundImageFix" result="effect1_dropShadow_895_14308"/>
<feBlend mode="normal" in="SourceGraphic" in2="effect1_dropShadow_895_14308" result="shape"/>
</filter>
<filter id="filter1_d_895_14308" x="0" y="0" width="66" height="70.999" filterUnits="userSpaceOnUse" color-interpolation-filters="sRGB">
<feFlood flood-opacity="0" result="BackgroundImageFix"/>
<feColorMatrix in="SourceAlpha" type="matrix" values="0 0 0 0 0 0 0 0 0 0 0 0 0 0 0 0 0 0 127 0" result="hardAlpha"/>
<feOffset dy="1"/>
<feGaussianBlur stdDeviation="4"/>
<feColorMatrix type="matrix" values="0 0 0 0 0 0 0 0 0 0 0 0 0 0 0 0 0 0 0.1 0"/>
<feBlend mode="normal" in2="BackgroundImageFix" result="effect1_dropShadow_895_14308"/>
<feBlend mode="normal" in="SourceGraphic" in2="effect1_dropShadow_895_14308" result="shape"/>
</filter>
<filter id="filter2_d_895_14308" x="21" y="56" width="24" height="24" filterUnits="userSpaceOnUse" color-interpolation-filters="sRGB">
<feFlood flood-opacity="0" result="BackgroundImageFix"/>
<feColorMatrix in="SourceAlpha" type="matrix" values="0 0 0 0 0 0 0 0 0 0 0 0 0 0 0 0 0 0 127 0" result="hardAlpha"/>
<feOffset dy="1"/>
<feGaussianBlur stdDeviation="4"/>
<feColorMatrix type="matrix" values="0 0 0 0 0 0 0 0 0 0 0 0 0 0 0 0 0 0 0.08 0"/>
<feBlend mode="normal" in2="BackgroundImageFix" result="effect1_dropShadow_895_14308"/>
<feBlend mode="normal" in="SourceGraphic" in2="effect1_dropShadow_895_14308" result="shape"/>
</filter>
</defs>
</svg>
