<svg width="66" height="80" viewBox="0 0 66 80" fill="none" xmlns="http://www.w3.org/2000/svg">
<g filter="url(#filter0_d_894_14026)">
<path d="M38.1334 56.3417C38.6796 55.7116 39.4125 55.2773 40.2123 55.0411C50.5033 52.0027 58 42.6301 58 31.5389C58 17.9864 46.8071 7 33 7C19.1929 7 8 17.9864 8 31.5389C8 42.6305 15.4972 52.0033 25.7888 55.0414C26.5886 55.2776 27.3215 55.7119 27.8678 56.342L32.6227 61.8267C32.8221 62.0567 33.1789 62.0567 33.3783 61.8267L38.1334 56.3417Z" fill="#E22C38"/>
</g>
<g filter="url(#filter1_d_894_14026)">
<circle cx="33" cy="67" r="4" fill="white"/>
</g>
<circle cx="33" cy="67" r="2" fill="#E22C38"/>
<g clip-path="url(#clip0_894_14026)">
<path d="M28.68 22.4004C25.7712 22.4004 23.4 24.762 23.4 27.6804V28.1604H25.32V27.6804C25.32 26.7893 25.674 25.9346 26.3041 25.3045C26.9343 24.6744 27.7889 24.3204 28.68 24.3204C30.12 24.3204 31.3296 25.2132 31.8096 26.4708C31.4352 26.3172 31.032 26.2404 30.6 26.2404C29.2656 26.2404 28.104 27.0276 27.5664 28.1604L29.2368 29.1204C29.4384 28.5636 29.976 28.1604 30.6 28.1604C30.9819 28.1604 31.3482 28.3121 31.6183 28.5822C31.8883 28.8522 32.04 29.2185 32.04 29.6004V31.0404H33.96V29.6004C33.96 29.2185 34.1117 28.8522 34.3818 28.5822C34.6518 28.3121 35.0181 28.1604 35.4 28.1604C36.0336 28.1604 36.5616 28.5636 36.7632 29.1204L38.4336 28.1604C37.896 27.0276 36.744 26.2404 35.4 26.2404C34.968 26.2404 34.5648 26.3172 34.1904 26.4708C34.6704 25.2132 35.88 24.3204 37.32 24.3204C38.2112 24.3204 39.0658 24.6744 39.6959 25.3045C40.326 25.9346 40.68 26.7893 40.68 27.6804V28.1604H42.6V27.6804C42.6 26.28 42.0437 24.9371 41.0535 23.9469C40.0634 22.9567 38.7204 22.4004 37.32 22.4004C35.5344 22.4004 33.96 23.2932 33 24.6468C32.04 23.2932 30.4656 22.4004 28.68 22.4004ZM27.24 32.0004V33.9204H28.6032C29.0832 35.0244 29.976 35.9076 31.08 36.3876C31.08 37.1652 31.08 37.9428 31.08 38.7204H23.4C23.4 38.7204 24.1872 39.9012 24.7536 40.746C25.1088 41.2836 25.704 41.6004 26.3472 41.6004H39.6528C40.296 41.6004 40.8912 41.2836 41.2464 40.746L42.6 38.7204H34.92C34.92 37.9428 34.92 37.1652 34.92 36.3876C36.024 35.9076 36.9168 35.0244 37.3968 33.9204H38.76V32.0004H27.24Z" fill="white"/>
</g>
<defs>
<filter id="filter0_d_894_14026" x="0" y="0" width="66" height="70.999" filterUnits="userSpaceOnUse" color-interpolation-filters="sRGB">
<feFlood flood-opacity="0" result="BackgroundImageFix"/>
<feColorMatrix in="SourceAlpha" type="matrix" values="0 0 0 0 0 0 0 0 0 0 0 0 0 0 0 0 0 0 127 0" result="hardAlpha"/>
<feOffset dy="1"/>
<feGaussianBlur stdDeviation="4"/>
<feColorMatrix type="matrix" values="0 0 0 0 0 0 0 0 0 0 0 0 0 0 0 0 0 0 0.1 0"/>
<feBlend mode="normal" in2="BackgroundImageFix" result="effect1_dropShadow_894_14026"/>
<feBlend mode="normal" in="SourceGraphic" in2="effect1_dropShadow_894_14026" result="shape"/>
</filter>
<filter id="filter1_d_894_14026" x="21" y="56" width="24" height="24" filterUnits="userSpaceOnUse" color-interpolation-filters="sRGB">
<feFlood flood-opacity="0" result="BackgroundImageFix"/>
<feColorMatrix in="SourceAlpha" type="matrix" values="0 0 0 0 0 0 0 0 0 0 0 0 0 0 0 0 0 0 127 0" result="hardAlpha"/>
<feOffset dy="1"/>
<feGaussianBlur stdDeviation="4"/>
<feColorMatrix type="matrix" values="0 0 0 0 0 0 0 0 0 0 0 0 0 0 0 0 0 0 0.08 0"/>
<feBlend mode="normal" in2="BackgroundImageFix" result="effect1_dropShadow_894_14026"/>
<feBlend mode="normal" in="SourceGraphic" in2="effect1_dropShadow_894_14026" result="shape"/>
</filter>
<clipPath id="clip0_894_14026">
<rect width="24" height="24" fill="white" transform="translate(21 20)"/>
</clipPath>
</defs>
</svg>
